<?xml version="1.0" encoding="UTF-8" standalone="no"?><svg xmlns="http://www.w3.org/2000/svg" xmlns:xlink="http://www.w3.org/1999/xlink"><symbol viewBox="0 0 7 12" id="arrowLeft"><title>left-arrow-chevron</title><path d="M6.997.805L6.215 0 .03 6.008l6.185 6.01.782-.806L1.64 6.008 6.998.805z" fill="#000" fill-rule="evenodd"/></symbol><symbol viewBox="0 0 7 12" id="arrowRight"><title>left-arrow-chevron</title><path d="M.003.805L.785 0 6.97 6.008l-6.185 6.01-.782-.806L5.36 6.008.002.805z" fill="#000" fill-rule="evenodd"/></symbol><symbol viewBox="0 0 23 23" id="baseball"><title>summer</title><path d="M11.49 0C5.17 0 0 5.17 0 11.49s5.17 11.49 11.49 11.49 11.49-5.17 11.49-11.49S17.81 0 11.49 0zM.957 11.49c0-2.825 1.15-5.41 2.97-7.325.334.575.62 1.15.86 1.77l-1.005.336.287.91 1.052-.334c.192.527.336 1.053.43 1.628l-1.052.19.144.958 1.053-.19.144 1.58-1.1-.05-.048.958 1.15.048c0 .527-.05 1.1-.145 1.628l-1.053-.192-.144.958 1.053.19a9.03 9.03 0 0 1-.43 1.63l-1.054-.336-.288.91 1.005.335c-.24.623-.526 1.198-.86 1.772C2.106 16.9.956 14.314.956 11.49zm3.687 7.994c.383-.67.766-1.388 1.053-2.154l.957.287.288-.91-.91-.286c.19-.574.335-1.148.48-1.77l1.004.19.144-.957-1.006-.19c.096-.576.096-1.15.144-1.725l.91.048.048-.957-.958-.05c0-.62-.048-1.196-.144-1.77l1.006-.192-.144-.957-1.005.192c-.095-.622-.286-1.197-.478-1.77l.91-.288-.288-.91-.957.287a11.235 11.235 0 0 0-1.053-2.153C6.51 1.867 8.904.91 11.49.91c2.585 0 5.026.957 6.846 2.537-.43.67-.766 1.436-1.054 2.202l-1.053-.336-.288.91 1.053.335c-.19.573-.335 1.148-.43 1.722l-1.102-.19-.143.956 1.1.192c-.095.574-.095 1.15-.143 1.77l-1.053.05.048.956 1.005-.048c0 .575.048 1.15.144 1.724l-1.1.19.143.96 1.1-.193c.097.574.288 1.196.432 1.723l-1.053.335.287.91 1.052-.336c.288.766.67 1.484 1.054 2.155-1.867 1.58-4.26 2.537-6.846 2.537a10.12 10.12 0 0 1-6.846-2.49zm14.41-.67a12.645 12.645 0 0 1-.862-1.82l.91-.286-.288-.91-.91.287c-.143-.526-.287-1.053-.43-1.627l.91-.144-.144-.957-.91.143a17.473 17.473 0 0 1-.096-1.58l1.054-.047-.048-.958-1.006.048c0-.527.048-1.053.096-1.532l.91.145.143-.958-.91-.143c.097-.527.24-1.1.432-1.628l.91.287.287-.91-.91-.287c.24-.622.527-1.244.862-1.82 1.82 1.916 2.968 4.453 2.968 7.326 0 2.872-1.15 5.457-2.968 7.372z" fill="#4A4A4A" fill-rule="evenodd"/></symbol><symbol viewBox="0 0 16 16" id="calendar"><title>calendar_1_</title><g fill="#9B9B9B" fill-rule="evenodd"><path d="M14.667 1.5H12.5v-1a.5.5 0 0 0-1 0v1h-3v-1a.5.5 0 0 0-1 0v1h-3v-1a.5.5 0 0 0-1 0v1H1.333C.597 1.5 0 2.096 0 2.833v11.833C0 15.403.597 16 1.333 16h13.334c.736 0 1.333-.597 1.333-1.334V2.833c0-.737-.597-1.333-1.333-1.333zM15 14.666c0 .184-.15.334-.333.334H1.333A.334.334 0 0 1 1 14.666V2.833c0-.183.15-.333.333-.333H3.5v1a.5.5 0 0 0 1 0v-1h3v1a.5.5 0 0 0 1 0v-1h3v1a.5.5 0 0 0 1 0v-1h2.167c.184 0 .333.15.333.333v11.833z"/><path d="M3.5 6h2v1.5h-2zM3.5 8.5h2V10h-2zM3.5 11h2v1.5h-2zM7 11h2v1.5H7zM7 8.5h2V10H7zM7 6h2v1.5H7zM10.5 11h2v1.5h-2zM10.5 8.5h2V10h-2zM10.5 6h2v1.5h-2z"/></g></symbol><symbol viewBox="0 0 65 65" id="checkMark"><title>tick7</title><path d="M19.175 26.325l-4.55 4.55L29.25 45.5 61.75 13 57.2 8.45 29.25 36.4 19.175 26.325zM58.5 32.5c0 14.3-11.7 26-26 26s-26-11.7-26-26 11.7-26 26-26c2.6 0 4.875.325 7.15.975l5.2-5.2C40.95.975 36.725 0 32.5 0 14.625 0 0 14.625 0 32.5S14.625 65 32.5 65 65 50.375 65 32.5h-6.5z" fill="#FFF" fill-rule="evenodd"/></symbol><symbol viewBox="0 0 19 19" id="checkbox"><title>Rectangle 136</title><rect x="525" y="16" width="19" height="19" rx="3" transform="translate(-525 -16)" fill="#D8D8D8" fill-rule="evenodd"/></symbol><symbol viewBox="0 0 20 20" id="checkboxChecked"><title>Group 5</title><g fill="none" fill-rule="evenodd"><rect fill="#60B700" width="20" height="20" rx="3"/><path d="M7.773 12.648l-3.58-3.58L3 10.26l4.773 4.774L18 4.807l-1.193-1.193-9.034 9.034z" fill="#FFF"/></g></symbol><symbol viewBox="0 0 166 110" id="email"><title>email19</title><path d="M0 .28v109.58h165.8V.28H0zm82.9 67.67L14.896 8.41h136.007L82.9 67.95zm-27.09-12.9L8.152 96.78V13.32l47.658 41.73zm6.178 5.41l20.91 18.31 20.91-18.31 47.137 41.27H14.855l47.133-41.27zm47.998-5.407l47.66-41.73v83.456l-47.66-41.727z" fill="#010002" fill-rule="evenodd"/></symbol><symbol viewBox="0 0 23 23" id="football"><title>rugby</title><g fill="#4A4A4A" fill-rule="evenodd"><path d="M22.905 1.314A1.34 1.34 0 0 0 21.66.07C15.34-.363 9.644 1.6 5.623 5.622 1.6 9.643-.41 15.34.07 21.66a1.34 1.34 0 0 0 1.244 1.245c.575.048 1.197.048 1.77.048 5.603 0 10.63-1.963 14.268-5.65 4.02-3.973 5.984-9.67 5.553-15.99zm-6.27 15.367c-3.83 3.83-9.29 5.698-15.32 5.267-.192 0-.336-.19-.336-.335-.432-6.032 1.435-11.44 5.265-15.32C9.74 2.8 14.527.933 19.84.933c.576 0 1.102 0 1.677.047.19 0 .335.19.335.334.527 6.128-1.34 11.537-5.218 15.367z"/><path d="M15.58 8.064l-.67-.67-.957.957-1.15-1.195-.67.718 1.15 1.15-1.006.956-1.15-1.15-.67.67 1.15 1.197-.957.958-1.197-1.15-.67.67 1.148 1.15-.956 1.005-1.15-1.15-.717.67L8.304 14l-.958.958.67.67.958-.957 1.15 1.197.67-.718L9.643 14l1.006-.957 1.15 1.15.67-.67-1.15-1.198.957-.958 1.197 1.15.67-.67-1.197-1.15 1.006-1.005 1.15 1.15.717-.67-1.197-1.15.958-.958z"/></g></symbol><symbol viewBox="0 0 23 26" id="golf"><title>golf-1</title><g fill="#4A4A4A" fill-rule="evenodd"><path d="M20.477 17.692c-1.655-.534-4.432 2.03-5.607 3.258l-2.723-4.165 4.38-6.728.266.16c.106.054.213.107.267.107h.106c.16-.054.267-.107.32-.214l5.394-8.276c.053-.107.106-.267.053-.427-.053-.16-.107-.267-.213-.32L21.33.178c-.266-.162-.586-.108-.746.16L15.19 8.614c-.16.267-.106.587.16.748l.268.16-4.112 6.3-4.11-6.3.266-.16c.267-.16.32-.48.16-.748L2.43.34C2.27.07 1.95.017 1.68.18l-1.39.906C.188 1.14.08 1.3.08 1.406c-.054.16 0 .268.053.428l5.393 8.276c.054.107.214.214.32.214h.107a.408.408 0 0 0 .267-.107l.267-.16 4.38 6.728-2.724 4.164C6.968 19.72 4.19 17.21 2.536 17.69c-1.12.32-2.67 2.723-2.51 3.898.267 2.03 4.966 3.738 5.874 4.058.053 0 .107.054.16.054h.267c.054-.054.16-.107.214-.16l2.137-3.31 2.83-4.38 4.965 7.69c0 .053.054.053.107.106l.053.054h.053s.053 0 .053.053h.213c.053 0 .107 0 .16-.053.96-.32 5.66-2.03 5.874-4.058.16-1.228-1.39-3.578-2.51-3.952zM21.224 1.3l.534.32-4.805 7.422-.267-.16-.267-.16L21.223 1.3zm-19.97.32l.534-.32 4.806 7.422-.534.32L1.254 1.62zm-.16 19.81c-.053-.64 1.175-2.563 1.762-2.723.054 0 .107-.054.214-.054 1.014 0 3.097 1.71 4.485 3.15l-1.71 2.617c-1.974-.694-4.644-2.03-4.75-2.99zm16.072 3.044l-1.708-2.617c1.44-1.548 3.79-3.417 4.7-3.15.64.213 1.867 2.082 1.76 2.723-.106.96-2.723 2.296-4.752 3.044z"/><path d="M11.506 6.906c1.71 0 3.15-1.388 3.15-3.15 0-1.71-1.387-3.15-3.15-3.15a3.122 3.122 0 0 0-3.15 3.15 3.156 3.156 0 0 0 3.15 3.15zm0-5.18c1.122 0 2.083.91 2.083 2.083 0 1.12-.91 2.082-2.084 2.082A2.085 2.085 0 0 1 9.424 3.81c0-1.175.96-2.083 2.082-2.083z"/></g></symbol><symbol viewBox="0 0 23 12" id="hockey"><title>hockey</title><path d="M22.98 3.137c0-2.106-5.937-3.064-11.49-3.064C5.936.073 0 1.03 0 3.137v5.6c0 2.108 5.936 3.065 11.49 3.065 5.553 0 11.49-.957 11.49-3.064v-5.6zM11.49 1.03c6.798 0 10.532 1.39 10.532 2.107 0 .718-3.734 2.107-10.532 2.107S.957 3.854.957 3.137c0-.718 3.735-2.106 10.533-2.106zm0 9.863C4.692 10.893.957 9.503.957 8.786v-4.26c1.915 1.197 6.32 1.77 10.533 1.77 4.212 0 8.617-.574 10.532-1.77v4.26c0 .718-3.734 2.107-10.532 2.107z" fill="#4A4A4A" fill-rule="evenodd"/></symbol><symbol viewBox="0 0 17 17" id="magnifier"><title>Shape</title><path d="M11.266 11.076A6.643 6.643 0 0 0 13 6.598C13 2.966 10.09 0 6.505 0 2.917 0 .007 2.966.007 6.598c0 3.632 2.91 6.598 6.497 6.598a6.4 6.4 0 0 0 3.89-1.314l4.83 4.907c.12.118.266.178.413.178a.56.56 0 0 0 .41-.18.614.614 0 0 0 0-.845l-4.78-4.867zM1.183 6.598c0-2.976 2.38-5.404 5.32-5.404 2.93 0 5.322 2.418 5.322 5.404 0 2.986-2.38 5.404-5.32 5.404-2.94 0-5.322-2.428-5.322-5.404z" fill="#9B9B9B" fill-rule="evenodd"/></symbol><symbol viewBox="0 0 8 13" id="pin"><title>Shape</title><path d="M4.008 0C1.81 0 .025 1.927.025 4.296c0 .954.565 2.51 1.726 4.756a53.05 53.05 0 0 0 1.665 2.968l.593.968.592-.968c.034-.055.842-1.38 1.664-2.968C7.426 6.806 7.99 5.25 7.99 4.296 7.99 1.926 6.204 0 4.008 0zm0 6.494c-1.14 0-2.065-.997-2.065-2.227S2.867 2.04 4.008 2.04c1.14 0 2.064.997 2.064 2.227s-.924 2.227-2.064 2.227z" fill="#FC413E" fill-rule="evenodd"/></symbol><symbol viewBox="0 0 20 20" id="radio"><title>Oval 1</title><path d="M10 19a9 9 0 1 0 0-18 9 9 0 0 0 0 18z" stroke="#979797" fill="#FFF" fill-rule="evenodd"/></symbol><symbol viewBox="0 0 20 20" id="radioChecked"><title>Group</title><g transform="translate(1 1)" fill="none" fill-rule="evenodd"><path d="M9 18A9 9 0 1 0 9 0a9 9 0 0 0 0 18z" stroke="#979797" fill="#FFF"/><circle fill="#33ACE0" cx="9" cy="9" r="5"/></g></symbol><symbol viewBox="0 0 13 13" id="remove"><title>Group 7</title><defs><path id="pa" d="M9.01 4.29L8.72 4 6.504 6.21 4.29 4 4 4.29 6.215 6.5 4 8.71l.29.29 2.215-2.21L8.72 9l.29-.29L6.795 6.5 9.01 4.29z"/></defs><g fill="none" fill-rule="evenodd"><path d="M6.5 13a6.5 6.5 0 1 0 0-13 6.5 6.5 0 0 0 0 13z" fill="#9B9B9B"/><use stroke="#D8D8D8" fill="#4A4A4A" xlink:href="#pa"/><use xlink:href="#pa"/></g></symbol><symbol viewBox="0 0 14 14" id="x"><title>Shape</title><path d="M14 .81L13.188 0 7 6.177.812 0 0 .81l6.188 6.176L0 13.163l.812.81L7 7.795l6.188 6.176.812-.81-6.19-6.176L14 .81z" fill="#233B58" fill-rule="evenodd"/></symbol></svg>