<?xml version="1.0" encoding="UTF-8" standalone="no"?>
<svg width="23px" height="23px" viewBox="0 0 23 23" version="1.1" xmlns="http://www.w3.org/2000/svg" xmlns:xlink="http://www.w3.org/1999/xlink">
    <!-- Generator: Sketch 3.6.1 (26313) - http://www.bohemiancoding.com/sketch -->
    <title>summer</title>
    <desc>Created with Sketch.</desc>
    <defs></defs>
    <g id="Page-1" stroke="none" stroke-width="1" fill="none" fill-rule="evenodd">
        <g id="Choose-sports" transform="translate(-188.000000, -479.000000)" fill="#4A4A4A">
            <g id="Sports-Check-+-Sports-Check-+-Sports-Check-+-Sports-Check-+-Sports-Check-+-Sports-Check-+-Sports-Check-+-Sports-Check-Mask" transform="translate(168.000000, 463.000000)">
                <g id="summer" transform="translate(20.000000, 16.000000)">
                    <g id="Capa_1">
                        <path d="M11.4896103,0 C5.17032069,0 0,5.17032069 0,11.4896103 C0,17.8089 5.17032069,22.9792207 11.4896103,22.9792207 C17.8089,22.9792207 22.9792207,17.8089 22.9792207,11.4896103 C22.9792207,5.17032069 17.8089,0 11.4896103,0 L11.4896103,0 Z M0.957434483,11.4896103 C0.957434483,8.66505172 2.10640345,6.07993103 3.92562414,4.16498276 C4.26071034,4.7395069 4.54797241,5.31395172 4.78733103,5.9363 L3.7819931,6.27138621 L4.06925517,7.18099655 L5.12249655,6.84591034 C5.31395172,7.37253103 5.45758276,7.89915172 5.55338966,8.47359655 L4.50014828,8.66505172 L4.64377931,9.62248621 L5.69702069,9.43103103 C5.74492414,9.95765172 5.79274828,10.4842724 5.84065172,11.0108138 L4.73958621,10.9629103 L4.69168276,11.9203448 L5.84065172,11.9682483 C5.84065172,12.494869 5.79274828,13.0693138 5.69702069,13.5959345 L4.64377931,13.4044793 L4.50014828,14.3619138 L5.55338966,14.553369 C5.45766207,15.1278931 5.31403103,15.6544345 5.12249655,16.1810552 L4.06925517,15.845969 L3.7819931,16.7555793 L4.78733103,17.0906655 C4.54797241,17.7130138 4.26071034,18.2875379 3.92562414,18.8619828 C2.10640345,16.8992897 0.957434483,14.314169 0.957434483,11.4896103 L0.957434483,11.4896103 Z M4.6437,19.4844897 C5.02668966,18.8142379 5.40967931,18.0961621 5.69694138,17.3301828 L6.65437586,17.6174448 L6.94163793,16.7078345 L6.03202759,16.4205724 C6.22348276,15.8460483 6.36711379,15.2716034 6.51074483,14.6492552 L7.51608276,14.8407103 L7.65971379,13.8832759 L6.65437586,13.6918207 C6.75010345,13.1172966 6.75010345,12.5428517 6.7980069,11.9684069 L7.70761724,12.0163103 L7.75552069,11.0588759 L6.79808621,11.0109724 C6.79808621,10.3886241 6.75018276,9.8141 6.65445517,9.23965517 L7.6597931,9.0482 L7.51616207,8.09076552 L6.51082414,8.28222069 C6.41509655,7.65987241 6.22356207,7.08534828 6.0321069,6.51090345 L6.94171724,6.22364138 L6.65445517,5.31403103 L5.69702069,5.6012931 C5.40975862,4.83531379 5.07467241,4.11723793 4.64377931,3.44698621 C6.51082414,1.86720345 8.90448966,0.909689655 11.4896897,0.909689655 C14.0748897,0.909689655 16.5163793,1.86712414 18.3356,3.44698621 C17.9047069,4.11723793 17.5696207,4.88321724 17.2823586,5.64919655 L16.2291172,5.31411034 L15.9418552,6.22372069 L16.9950966,6.5588069 C16.8036414,7.13333103 16.6600103,7.70777586 16.5642034,8.28222069 L15.4631379,8.09076552 L15.3195069,9.0482 L16.4205724,9.23965517 C16.3248448,9.81417931 16.3248448,10.3886241 16.2769414,11.0109724 L15.2237,11.0588759 L15.2716034,12.0163103 L16.2769414,11.9684069 C16.2769414,12.542931 16.3248448,13.1173759 16.4205724,13.6918207 L15.3195069,13.8832759 L15.4631379,14.8407103 L16.5642034,14.6492552 C16.659931,15.2237793 16.8514655,15.8461276 16.9950966,16.372669 L15.9418552,16.7077552 L16.2291172,17.6173655 L17.2823586,17.2822793 C17.5696207,18.0482586 17.9526103,18.7663345 18.3356,19.4365862 C16.4685552,21.016369 14.0748897,21.9738828 11.4896897,21.9738828 C8.85658621,22.0217862 6.46292069,21.0643517 4.6437,19.4844897 L4.6437,19.4844897 Z M19.0536759,18.8142379 C18.7185897,18.2397138 18.4313276,17.6173655 18.191969,16.9950172 L19.1015793,16.7077552 L18.8143172,15.7981448 L17.9047069,16.0854069 C17.7610759,15.5587862 17.6174448,15.0321655 17.4738138,14.4577207 L18.3834241,14.3140897 L18.2397931,13.3566552 L17.3301828,13.5002862 C17.2822793,12.9736655 17.2344552,12.4470448 17.2344552,11.9205034 L18.2876966,11.8726 L18.2397931,10.9151655 L17.2344552,10.963069 C17.2344552,10.4364483 17.2823586,9.90982759 17.3301828,9.43111034 L18.2397931,9.57474138 L18.3834241,8.6173069 L17.4738138,8.47367586 C17.5695414,7.94705517 17.7131724,7.37261034 17.9047069,6.84598966 L18.8143172,7.13325172 L19.1015793,6.22364138 L18.191969,5.93637931 C18.4313276,5.31403103 18.7185897,4.69168276 19.0536759,4.11715862 C20.8728966,6.0321069 22.0218655,8.56940345 22.0218655,11.4417862 C22.0217862,14.314169 20.8728172,16.8992897 19.0536759,18.8142379 L19.0536759,18.8142379 Z" id="Shape"></path>
                    </g>
                </g>
            </g>
        </g>
    </g>
</svg>