<?xml version="1.0" encoding="UTF-8" standalone="no"?>
<svg width="166px" height="110px" viewBox="0 0 166 110" version="1.1" xmlns="http://www.w3.org/2000/svg" xmlns:xlink="http://www.w3.org/1999/xlink" xmlns:sketch="http://www.bohemiancoding.com/sketch/ns">
    <!-- Generator: Sketch 3.5.2 (25235) - http://www.bohemiancoding.com/sketch -->
    <title>email19</title>
    <desc>Created with Sketch.</desc>
    <defs></defs>
    <g id="Page-1" stroke="none" stroke-width="1" fill="none" fill-rule="evenodd" sketch:type="MSPage">
        <g id="3-Verify-Email" sketch:type="MSArtboardGroup" transform="translate(-429.000000, -245.000000)" fill="#010002">
            <g id="Group" sketch:type="MSLayerGroup" transform="translate(325.000000, 156.000000)">
                <g id="Sign-Up-Form" sketch:type="MSShapeGroup">
                    <g id="email19" transform="translate(104.000000, 89.000000)">
                        <g id="Capa_1">
                            <path d="M0,0.280619195 L0,109.85935 L165.798819,109.85935 L165.798819,0.280619195 L0,0.280619195 L0,0.280619195 Z M82.9002634,67.950031 L14.8962798,8.40869969 L150.902539,8.40869969 L82.9002634,67.950031 L82.9002634,67.950031 Z M55.8104979,55.050743 L8.15210288,96.7788854 L8.15210288,13.3222601 L55.8104979,55.050743 L55.8104979,55.050743 Z M61.987679,60.4601548 L82.898214,78.769195 L103.808749,60.4601548 L150.945235,101.731269 L14.8535844,101.731269 L61.987679,60.4601548 L61.987679,60.4601548 Z M109.986272,55.0527864 L157.646374,13.3222601 L157.646374,96.7788854 L109.986272,55.0527864 L109.986272,55.0527864 Z" id="Shape"></path>
                        </g>
                    </g>
                </g>
            </g>
        </g>
    </g>
</svg>