<?xml version="1.0" encoding="UTF-8" standalone="no"?>
<svg width="23px" height="23px" viewBox="0 0 23 23" version="1.1" xmlns="http://www.w3.org/2000/svg" xmlns:xlink="http://www.w3.org/1999/xlink">
    <!-- Generator: Sketch 3.6.1 (26313) - http://www.bohemiancoding.com/sketch -->
    <title>rugby</title>
    <desc>Created with Sketch.</desc>
    <defs></defs>
    <g id="Page-1" stroke="none" stroke-width="1" fill="none" fill-rule="evenodd">
        <g id="Choose-sports" transform="translate(-187.000000, -582.000000)" fill="#4A4A4A">
            <g id="Sports-Check-+-Sports-Check-+-Sports-Check-+-Sports-Check-+-Sports-Check-+-Sports-Check-+-Sports-Check-+-Sports-Check-Mask" transform="translate(168.000000, 463.000000)">
                <g id="rugby" transform="translate(19.000000, 119.000000)">
                    <g id="Capa_1">
                        <g id="Group">
                            <path d="M22.9051448,1.31393448 C22.8572414,0.643682759 22.3306207,0.117062069 21.6604483,0.069237931 C15.3411586,-0.361655172 9.64413793,1.60119655 5.62278621,5.62254828 C1.60143448,9.6439 -0.409241379,15.3408414 0.0694758621,21.660131 C0.11737931,22.3303828 0.644,22.8570034 1.31417241,22.9048276 C1.88869655,22.952731 2.51104483,22.952731 3.08548966,22.952731 C8.68670345,22.952731 13.7133931,20.9898793 17.3517552,17.3036931 C21.3731862,13.3301655 23.3359586,7.63322414 22.9051448,1.31393448 L22.9051448,1.31393448 Z M16.6336793,16.6812655 C12.8037828,20.5111621 7.3462,22.3782069 1.31417241,21.9473138 C1.12271724,21.9473138 0.979086207,21.7558586 0.979086207,21.6122276 C0.548193103,15.5802 2.41523793,10.1705207 6.24513448,6.29272069 C9.73986552,2.79798966 14.5272759,0.930865517 19.8412276,0.930865517 C20.4156724,0.930865517 20.9422931,0.930865517 21.5168172,0.978768966 C21.7082724,0.978768966 21.8519034,1.17022414 21.8519034,1.31385517 C22.3785241,7.44168966 20.5114793,12.8514483 16.6336793,16.6812655 L16.6336793,16.6812655 Z" id="Shape"></path>
                            <path d="M15.5805172,8.06403793 L14.9102655,7.39386552 L13.952831,8.3513 L12.8038621,7.1545069 L12.1336103,7.87258276 L13.2825793,9.02155172 L12.2772414,9.97898621 L11.1282724,8.83001724 L10.4580207,9.50026897 L11.6069897,10.6971414 L10.6495552,11.6545759 L9.45268276,10.5056069 L8.78243103,11.1758586 L9.9314,12.3248276 L8.97396552,13.3301655 L7.82499655,12.1811966 L7.10692069,12.8514483 L8.30371379,14.0004172 L7.34627931,14.9578517 L8.01645172,15.6281034 L8.97396552,14.6705897 L10.1229345,15.8674621 L10.7931862,15.1493862 L9.64421724,14.0004172 L10.6495552,13.0429034 L11.7985241,14.1918724 L12.4686966,13.5217 L11.3197276,12.3248276 L12.2772414,11.3673931 L13.4740345,12.5162828 L14.1442862,11.8461103 L12.9474931,10.6971414 L13.952831,9.69180345 L15.1017207,10.8407724 L15.8198759,10.1705207 L14.6230034,9.02155172 L15.5805172,8.06403793 Z" id="Shape"></path>
                        </g>
                    </g>
                </g>
            </g>
        </g>
    </g>
</svg>