<?xml version="1.0" encoding="UTF-8" standalone="no"?>
<svg width="23px" height="26px" viewBox="0 0 23 26" version="1.1" xmlns="http://www.w3.org/2000/svg" xmlns:xlink="http://www.w3.org/1999/xlink">
    <!-- Generator: Sketch 3.6.1 (26313) - http://www.bohemiancoding.com/sketch -->
    <title>golf-1</title>
    <desc>Created with Sketch.</desc>
    <defs></defs>
    <g id="Page-1" stroke="none" stroke-width="1" fill="none" fill-rule="evenodd">
        <g id="Choose-sports" transform="translate(-187.000000, -635.000000)" fill="#4A4A4A">
            <g id="Sports-Check-+-Sports-Check-+-Sports-Check-+-Sports-Check-+-Sports-Check-+-Sports-Check-+-Sports-Check-+-Sports-Check-Mask" transform="translate(168.000000, 463.000000)">
                <g id="golf-1" transform="translate(19.000000, 172.000000)">
                    <g id="Capa_1">
                        <g id="Group">
                            <path d="M20.4769094,17.6924 C18.8216663,17.158462 16.0450298,19.7214703 14.870384,20.9495453 L12.1471767,16.7847232 L16.525627,10.0568928 L16.792596,10.2170919 C16.8993659,10.270521 17.0061358,10.3238618 17.059565,10.3238618 L17.1663349,10.3238618 C17.326534,10.2704326 17.4333039,10.2170919 17.486733,10.110322 L22.8797186,1.83401845 C22.9331477,1.72724856 22.9864885,1.56704948 22.9331477,1.40685041 C22.8797186,1.24665133 22.8263778,1.13988143 22.7196079,1.08645226 L21.3312455,0.178598527 C21.0642765,0.018399452 20.7438783,0.0718286299 20.5836793,0.338797602 L15.1906937,8.6151011 C15.0304946,8.88207008 15.0839238,9.20246823 15.3508928,9.3626673 L15.6178618,9.52286638 L11.5063804,15.8235287 L7.39489899,9.52286638 L7.66186796,9.3626673 C7.92883693,9.20246823 7.98226611,8.88207008 7.82206703,8.6151011 L2.42916996,0.338709143 C2.26897088,0.071740171 1.94857273,0.0183109931 1.68160376,0.178510068 L0.293329725,1.08627534 C0.186559828,1.13970452 0.0797899313,1.29981513 0.0797899313,1.40667349 C0.0263607533,1.56687256 0.0797899313,1.67364246 0.133219109,1.83384154 L5.52620464,10.110145 C5.57963382,10.2169149 5.73974444,10.3236848 5.84660279,10.3236848 L5.95337269,10.3236848 C6.06014258,10.3236848 6.16691248,10.2702557 6.22034166,10.2169149 L6.48731063,10.0567159 L10.865761,16.7845463 L8.14255364,20.9493684 C6.9678194,19.7212934 4.19127132,17.2116258 2.53602831,17.6922231 C1.41472325,18.0126212 -0.133749863,20.4154304 0.0264492123,21.5900762 C0.293418184,23.6191465 4.9922667,25.3278187 5.89994351,25.6481284 L5.89994351,25.6481284 C5.95337269,25.6481284 6.00671341,25.7015576 6.06014258,25.7015576 L6.06014258,25.7015576 L6.06014258,25.7015576 L6.11357176,25.7015576 L6.22034166,25.7015576 L6.27377084,25.7015576 L6.32720002,25.7015576 C6.38062919,25.6481284 6.48739909,25.5947877 6.54073981,25.5413585 L8.67658004,22.230784 L8.67658004,22.230784 L11.5065573,17.8523337 L16.4723748,25.5413585 C16.4723748,25.5947877 16.525804,25.5947877 16.5791447,25.6481284 L16.6325739,25.7015576 L16.686003,25.7015576 C16.686003,25.7015576 16.7394322,25.7015576 16.7394322,25.7549868 L16.7928614,25.7549868 L16.8996313,25.7549868 L16.9530605,25.7549868 L16.9530605,25.7549868 L16.9530605,25.7549868 C17.0064896,25.7549868 17.0598304,25.7549868 17.1132595,25.7015576 L17.1132595,25.7015576 C18.0743655,25.3811594 22.773214,23.6724873 22.9867538,21.6435054 C23.1466875,20.4155189 21.5982144,18.0661389 20.4769094,17.6924 L20.4769094,17.6924 Z M21.2244756,1.29990359 L21.7584135,1.62030174 L16.9527951,9.04226915 L16.6858261,8.88207008 L16.6858261,8.88207008 L16.6858261,8.88207008 L16.4188571,8.721871 L21.2244756,1.29990359 L21.2244756,1.29990359 Z M1.25443572,1.62021328 L1.78837366,1.29981513 L6.59399207,8.72178254 L6.06005413,9.04218069 L1.25443572,1.62021328 L1.25443572,1.62021328 Z M1.09423664,21.430054 C1.04080746,20.7892577 2.26897088,18.8670458 2.85624955,18.7068467 C2.90967872,18.7068467 2.96301944,18.6534175 3.06978934,18.6534175 C4.08432451,18.6534175 6.16673556,20.3620897 7.5550096,21.8037929 L5.84633741,24.4201419 C3.87087317,23.7260934 1.201095,22.39116 1.09423664,21.430054 L1.09423664,21.430054 Z M17.1664233,24.4735711 L15.4577512,21.8572221 C16.8994544,20.308749 19.2488344,18.4398777 20.1565997,18.7068467 C20.7973075,18.9203865 22.0254709,20.7892577 21.918701,21.430054 C21.8118427,22.39116 19.1954052,23.7260934 17.1664233,24.4735711 L17.1664233,24.4735711 Z" id="Shape"></path>
                            <path d="M11.5064688,6.90642892 C13.215141,6.90642892 14.6568442,5.51815488 14.6568442,3.75605352 C14.6568442,2.04738133 13.2685702,0.605678115 11.5064688,0.605678115 C9.74436747,0.605678115 8.35609343,1.99395215 8.35609343,3.75605352 C8.35609343,5.51815488 9.79779665,6.90642892 11.5064688,6.90642892 L11.5064688,6.90642892 Z M11.5064688,1.72707164 C12.6277739,1.72707164 13.5888799,2.63483691 13.5888799,3.80948269 C13.5888799,4.93078776 12.6811146,5.89189375 11.5064688,5.89189375 C10.3851638,5.89189375 9.42405778,4.98412848 9.42405778,3.80948269 C9.42396932,2.63474845 10.3851638,1.72707164 11.5064688,1.72707164 L11.5064688,1.72707164 Z" id="Shape"></path>
                        </g>
                    </g>
                </g>
            </g>
        </g>
    </g>
</svg>