<?xml version="1.0" encoding="UTF-8" standalone="no"?>
<svg width="23px" height="12px" viewBox="0 0 23 12" version="1.1" xmlns="http://www.w3.org/2000/svg" xmlns:xlink="http://www.w3.org/1999/xlink">
    <!-- Generator: Sketch 3.6.1 (26313) - http://www.bohemiancoding.com/sketch -->
    <title>hockey</title>
    <desc>Created with Sketch.</desc>
    <defs></defs>
    <g id="Page-1" stroke="none" stroke-width="1" fill="none" fill-rule="evenodd">
        <g id="Choose-sports" transform="translate(-187.000000, -695.000000)" fill="#4A4A4A">
            <g id="Sports-Check-+-Sports-Check-+-Sports-Check-+-Sports-Check-+-Sports-Check-+-Sports-Check-+-Sports-Check-+-Sports-Check-Mask" transform="translate(168.000000, 463.000000)">
                <g id="hockey" transform="translate(19.000000, 232.000000)">
                    <g id="Capa_1">
                        <path d="M22.9793,3.13727931 C22.9793,1.03087586 17.043,0.073362069 11.4896897,0.073362069 C5.93637931,0.073362069 0,1.03087586 0,3.13727931 L0,3.13727931 L0,8.7384931 C0,10.8448966 5.9363,11.8024103 11.4896103,11.8024103 C17.0429207,11.8024103 22.9792207,10.8449759 22.9792207,8.7384931 L22.9792207,3.13727931 L22.9793,3.13727931 L22.9793,3.13727931 Z M11.4896103,1.03087586 C18.2876172,1.03087586 22.0217862,2.41920345 22.0217862,3.13727931 C22.0217862,3.85535517 18.2876172,5.24368276 11.4896103,5.24368276 C4.69160345,5.24368276 0.957434483,3.85543448 0.957434483,3.13727931 C0.957434483,2.41912414 4.69160345,1.03087586 11.4896103,1.03087586 L11.4896103,1.03087586 Z M11.4896103,10.8928 C4.69160345,10.8928 0.957434483,9.50447241 0.957434483,8.78639655 L0.957434483,4.52568621 C2.87238276,5.72255862 7.27672414,6.29700345 11.4896103,6.29700345 C15.7024966,6.29700345 20.1068379,5.72247931 22.0217862,4.52568621 L22.0217862,8.78639655 C22.0217862,9.50447241 18.2876966,10.8928 11.4896103,10.8928 L11.4896103,10.8928 Z" id="Shape"></path>
                    </g>
                </g>
            </g>
        </g>
    </g>
</svg>