<?xml version="1.0" encoding="UTF-8" standalone="no"?>
<svg width="17px" height="17px" viewBox="0 0 17 17" version="1.1" xmlns="http://www.w3.org/2000/svg" xmlns:xlink="http://www.w3.org/1999/xlink">
    <!-- Generator: Sketch 3.6.1 (26313) - http://www.bohemiancoding.com/sketch -->
    <title>Shape</title>
    <desc>Created with Sketch.</desc>
    <defs></defs>
    <g id="Page-1" stroke="none" stroke-width="1" fill="none" fill-rule="evenodd">
        <g id="Choose-sports" transform="translate(-700.000000, -418.000000)" fill="#9B9B9B">
            <g id="Group-4" transform="translate(56.000000, 409.000000)">
                <g id="Group-6">
                    <g id="search" transform="translate(644.000000, 9.000000)">
                        <g id="Capa_1">
                            <path d="M11.2662966,11.076343 C12.33444,9.90204339 13.0008234,8.32964876 13.0008234,6.59803719 C13.0008234,2.9656219 10.0903462,0 6.50369744,0 C2.91704873,0 0.00657148753,2.9656219 0.00657148753,6.59803719 C0.00657148753,10.2304525 2.91704873,13.1960744 6.50369744,13.1960744 C7.96384739,13.1960744 9.3063677,12.7084483 10.3941218,11.882438 L15.2253065,16.7886591 C15.3429016,16.9080806 15.4898954,16.9677913 15.6368892,16.9677913 C15.783883,16.9677913 15.9406648,16.9080806 16.0484718,16.7886591 C16.2738738,16.5597562 16.2738738,16.1816116 16.0484718,15.9427686 L11.2662966,11.076343 L11.2662966,11.076343 Z M1.18252189,6.59803719 C1.18252189,3.62244008 3.56382145,1.19421488 6.50369744,1.19421488 C9.43378539,1.19421488 11.824873,3.6125 11.824873,6.59803719 C11.824873,9.58357438 9.44357344,12.0018595 6.50369744,12.0018595 C3.56382145,12.0018595 1.18252189,9.5736343 1.18252189,6.59803719 L1.18252189,6.59803719 Z" id="Shape"></path>
                        </g>
                    </g>
                </g>
            </g>
        </g>
    </g>
</svg>