<?xml version="1.0" encoding="UTF-8" standalone="no"?>
<svg width="8px" height="13px" viewBox="0 0 8 13" version="1.1" xmlns="http://www.w3.org/2000/svg" xmlns:xlink="http://www.w3.org/1999/xlink">
    <!-- Generator: Sketch 3.6.1 (26313) - http://www.bohemiancoding.com/sketch -->
    <title>Shape</title>
    <desc>Created with Sketch.</desc>
    <defs></defs>
    <g id="Page-1" stroke="none" stroke-width="1" fill="none" fill-rule="evenodd">
        <g id="Create-Event" transform="translate(-332.000000, -260.000000)" fill="#FC413E">
            <g id="Popup-Card" transform="translate(306.000000, 116.000000)">
                <g id="Location" transform="translate(17.000000, 134.000000)">
                    <path d="M13.0075355,10 C10.8114065,10 9.02472258,11.9272848 9.02472258,14.2962077 C9.02472258,15.2503298 9.58954839,16.8058758 10.7513806,19.051758 C11.5732129,20.6402355 12.3815226,21.9647323 12.4154839,22.0203233 L13.0075355,22.988364 L13.5995613,22.0203512 C13.6335484,21.9647323 14.4419097,20.6402634 15.2636387,19.0517859 C16.4255226,16.8058758 16.9902968,15.2503576 16.9902968,14.2962355 C16.9903226,11.9272848 15.2036387,10 13.0075355,10 L13.0075355,10 Z M13.0075355,16.494182 C11.8673548,16.494182 10.9430194,15.4971349 10.9430194,14.2672013 C10.9430194,13.0372677 11.8673548,12.0402206 13.0075355,12.0402206 C14.1477161,12.0402206 15.0720516,13.0372677 15.0720516,14.2672013 C15.0720516,15.4971349 14.1476903,16.494182 13.0075355,16.494182 L13.0075355,16.494182 Z" id="Shape"></path>
                </g>
            </g>
        </g>
    </g>
</svg>