<?xml version="1.0" encoding="UTF-8" standalone="no"?>
<svg width="13px" height="13px" viewBox="0 0 13 13" version="1.1" xmlns="http://www.w3.org/2000/svg" xmlns:xlink="http://www.w3.org/1999/xlink">
    <!-- Generator: Sketch 3.6.1 (26313) - http://www.bohemiancoding.com/sketch -->
    <title>Group 7</title>
    <desc>Created with Sketch.</desc>
    <defs>
        <path id="path-1" d="M9.0098724,4.28979492 L8.71943896,4 L6.5049362,6.21027875 L4.29042525,4 L4,4.28979492 L6.21451095,6.50009005 L4,8.71021326 L4.29042525,9 L6.5049362,6.78987678 L8.71943896,9 L9.0098724,8.71021326 L6.79520591,6.50009005 L9.0098724,4.28979492 Z"></path>
    </defs>
    <g id="Page-1" stroke="none" stroke-width="1" fill="none" fill-rule="evenodd">
        <g id="Choose-sports-selected" transform="translate(-939.000000, -478.000000)">
            <g id="Selections" transform="translate(764.000000, 406.000000)">
                <g id="Sport" transform="translate(1.000000, 56.000000)">
                    <g id="close-circle" transform="translate(174.000000, 16.000000)">
                        <g id="Group-7">
                            <path d="M6.5,13 C10.0898509,13 13,10.0898509 13,6.5 C13,2.91014913 10.0898509,0 6.5,0 C2.91014913,0 0,2.91014913 0,6.5 C0,10.0898509 2.91014913,13 6.5,13 Z" id="Oval-36" fill="#9B9B9B"></path>
                            <g id="Shape">
                                <use stroke="#D8D8D8" stroke-width="1" fill="#4A4A4A" fill-rule="evenodd" xlink:href="#path-1"></use>
                                <use stroke="none" fill="none" xlink:href="#path-1"></use>
                            </g>
                        </g>
                    </g>
                </g>
            </g>
        </g>
    </g>
</svg>